<?xml version="1.0" standalone="no"?><!DOCTYPE svg PUBLIC "-//W3C//DTD SVG 1.1//EN" "http://www.w3.org/Graphics/SVG/1.1/DTD/svg11.dtd"><svg t="1629966324355" class="icon" viewBox="0 0 1024 1024" version="1.1" xmlns="http://www.w3.org/2000/svg" p-id="2122" xmlns:xlink="http://www.w3.org/1999/xlink" width="32" height="32"><defs><style type="text/css"></style></defs><path d="M759.57826045 343.15217422a31.18695644 31.18695644 0 0 1-19.33043467 19.36956533l-385.66956533 385.66956446a148.69565244 148.69565244 0 0 1-61.43478223 36.97826132l-157.81304355 48.56086934a39.13043467 39.13043467 0 0 1-48.91304355-48.91304355l48.52173955-157.85217334a148.69565244 148.69565244 0 0 1 37.0173911-61.39565245L635.53478222 101.99130401a129.13043467 129.13043467 0 1 1 182.62173956 182.58260888l-58.57826133 58.57826133zM589.47826045 236.63913066L216.17391289 609.82608711a86.08695645 86.08695645 0 0 0-21.40434756 35.56956533l-35.53043466 115.43478223 115.43478222-35.491304a86.08695645 86.08695645 0 0 0 35.60869599-21.40434844l373.18695645-373.22608624-94.06956533-94.06956532zM633.69565244 192.30434756l94.06956533 94.10869599 46.13478223-46.1347831a66.52173955 66.52173955 0 1 0-94.06956533-94.06956446L633.69565244 192.30434756zM120.69565244 933.04347823h782.60869512a31.30434756 31.30434756 0 1 0 0-62.608696H120.69565244a31.30434756 31.30434756 0 1 0 0 62.60869599z" p-id="2123" fill="#cccccc"></path></svg>