<?xml version="1.0" encoding="UTF-8"?>
<svg width="48px" height="48px" viewBox="0 0 48 48" version="1.1" xmlns="http://www.w3.org/2000/svg" xmlns:xlink="http://www.w3.org/1999/xlink">
    <title>矩形</title>
    <g id="页面-1" stroke="none" stroke-width="1" fill="none" fill-rule="evenodd">
        <g id="操作状态" transform="translate(-2532.000000, -1287.000000)">
            <g id="编组-2" transform="translate(2532.000000, 1287.000000)">
                <rect id="矩形" x="0" y="0" width="48" height="48"></rect>
                <g id="mm-logo" transform="translate(4.800000, 4.800000)" fill-rule="nonzero" stroke-linecap="round" stroke-linejoin="round" stroke-width="0.5625">
                    <polygon id="路径" stroke="#E17726" fill="#E17726" points="36.09408 0 21.2602729 10.9759624 24.0187482 4.50747106"></polygon>
                    <polygon id="路径" stroke="#E27625" fill="#E27625" points="1.87803106 0 16.5797647 11.0784 13.9534306 4.50745976"></polygon>
                    <polygon id="路径" stroke="#E27625" fill="#E27625" points="30.7529788 25.4494871 26.8061365 31.4789647 35.2574118 33.8058918 37.6784188 25.5812894"></polygon>
                    <polygon id="路径" stroke="#E27625" fill="#E27625" points="0.308001882 25.5812894 2.71425882 33.8058918 11.1509082 31.4789647 7.21868047 25.4494871"></polygon>
                    <polygon id="路径" stroke="#E27625" fill="#E27625" points="10.6959812 15.2638871 8.34844235 18.8054965 16.71168 19.1859953 16.4329412 10.1857129"></polygon>
                    <polygon id="路径" stroke="#E27625" fill="#E27625" points="27.2756329 15.264 21.4508047 10.0833656 21.2600471 19.1861082 29.6232282 18.8056094"></polygon>
                    <polygon id="路径" stroke="#E27625" fill="#E27625" points="11.1510212 31.4789647 16.2129318 29.0350306 11.8553224 25.6397929"></polygon>
                    <polygon id="路径" stroke="#E27625" fill="#E27625" points="21.7591341 29.0350306 26.8063624 31.4789647 26.1167435 25.6397929"></polygon>
                    <polygon id="路径" stroke="#D5BFB2" fill="#D5BFB2" points="26.8063624 31.4791906 21.7591341 29.0352565 22.1699012 32.3133741 22.1258541 33.70368"></polygon>
                    <polygon id="路径" stroke="#D5BFB2" fill="#D5BFB2" points="11.1510212 31.4791906 15.8462118 33.70368 15.8168471 32.3133741 16.2129318 29.0352565"></polygon>
                    <polygon id="路径" stroke="#233447" fill="#233447" points="15.93408 23.47392 11.7377506 22.2446682 14.7015529 20.8836141"></polygon>
                    <polygon id="路径" stroke="#233447" fill="#233447" points="22.0378729 23.47392 23.2704 20.8836141 26.2488847 22.2446682"></polygon>
                    <polygon id="路径" stroke="#CC6228" fill="#CC6228" points="11.1509082 31.4789647 11.8845741 25.4494871 7.21874824 25.5812894"></polygon>
                    <polygon id="路径" stroke="#CC6228" fill="#CC6228" points="26.0872659 25.4494871 26.8062494 31.4789647 30.7530918 25.5812894"></polygon>
                    <polygon id="路径" stroke="#CC6228" fill="#CC6228" points="29.6232282 18.8053835 21.2600471 19.1858824 22.0376471 23.47392 23.2701741 20.8835012 26.2486588 22.2445553"></polygon>
                    <polygon id="路径" stroke="#CC6228" fill="#CC6228" points="11.7377506 22.2445553 14.7015529 20.8835012 15.93408 23.47392 16.71168 19.1858824 8.34844235 18.8053835"></polygon>
                    <polygon id="路径" stroke="#E27525" fill="#E27525" points="8.34871341 18.8053835 11.8554353 25.6397929 11.7379765 22.2445553"></polygon>
                    <polygon id="路径" stroke="#E27525" fill="#E27525" points="26.2488847 22.2445553 26.1168565 25.6397929 29.6235671 18.8053835"></polygon>
                    <polygon id="路径" stroke="#E27525" fill="#E27525" points="16.7121318 19.1858824 15.9344188 23.47392 16.9174588 28.5374118 17.1375812 21.8640565"></polygon>
                    <polygon id="路径" stroke="#E27525" fill="#E27525" points="21.2602729 19.1858824 20.8493929 21.8494871 21.0548329 28.5374118 22.0378729 23.47392"></polygon>
                    <polygon id="路径" stroke="#F5841F" fill="#F5841F" points="22.0378729 23.4740329 21.0548329 28.5375247 21.7591341 29.0351435 26.1168565 25.6399059 26.2488847 22.2446682"></polygon>
                    <polygon id="路径" stroke="#F5841F" fill="#F5841F" points="11.7377506 22.2446682 11.8552094 25.6399059 16.2128188 29.0351435 16.91712 28.5375247 15.93408 23.4740329"></polygon>
                    <polygon id="路径" stroke="#C0AC9D" fill="#C0AC9D" points="22.1259671 33.7035671 22.1699012 32.3132612 21.7884988 31.9912659 16.18368 31.9912659 15.8168471 32.3132612 15.8462118 33.7035671 11.1510212 31.4790776 12.7943153 32.8254494 16.1249506 35.1231247 21.8324329 35.1231247 25.1777506 32.8254494 26.8063624 31.4790776"></polygon>
                    <polygon id="路径" stroke="#161616" fill="#161616" points="21.7590212 29.0350306 21.05472 28.5375247 16.91712 28.5375247 16.2129318 29.0350306 15.8167341 32.3132612 16.1835671 31.9912659 21.7883859 31.9912659 22.1699012 32.3132612"></polygon>
                    <polygon id="路径" stroke="#763E1A" fill="#763E1A" points="36.7248565 11.6930259 37.9720659 5.63433035 36.0939671 0 21.7591341 10.6101459 27.2758588 15.2638871 35.06688 17.5323106 36.7835859 15.5273788 36.0353506 14.9858259 37.2237176 13.9029459 36.3140894 13.2004518 37.5025694 12.2930824"></polygon>
                    <polygon id="路径" stroke="#763E1A" fill="#763E1A" points="0 5.63433035 1.261824 11.6930259 0.454848 12.2930824 1.65797647 13.2004518 0.748291765 13.9029459 1.93674918 14.9858259 1.18845741 15.5273788 2.90512941 17.5323106 10.6962071 15.2638871 16.2129318 10.6101459 1.87806494 0"></polygon>
                    <polygon id="路径" stroke="#F5841F" fill="#F5841F" points="35.0669929 17.5321976 27.2759718 15.2638871 29.6235671 18.8054965 26.1168565 25.6397929 30.7533176 25.5812894 37.6786447 25.5812894"></polygon>
                    <polygon id="路径" stroke="#F5841F" fill="#F5841F" points="10.6959812 15.2638871 2.90500518 17.5321976 0.308001882 25.5812894 7.21868047 25.5812894 11.8550965 25.6397929 8.34845365 18.8054965"></polygon>
                    <polygon id="路径" stroke="#F5841F" fill="#F5841F" points="21.26016 19.1859953 21.7590212 10.6100329 24.0185224 4.50744847 13.9533176 4.50744847 16.2128188 10.6100329 16.71168 19.1859953 16.9024376 21.8787388 16.91712 28.5375247 21.05472 28.5375247 21.0694024 21.8787388"></polygon>
                </g>
            </g>
        </g>
    </g>
</svg>