<?xml version="1.0" encoding="UTF-8"?>
<svg width="18px" height="18px" viewBox="0 0 18 18" version="1.1" xmlns="http://www.w3.org/2000/svg" xmlns:xlink="http://www.w3.org/1999/xlink">
    <title>矩形</title>
    <g id="页面-1" stroke="none" stroke-width="1" fill="none" fill-rule="evenodd">
        <g id="操作状态" transform="translate(-737.000000, -1440.000000)">
            <g id="编组-3备份-5" transform="translate(681.000000, 881.000000)">
                <g id="编组-4" transform="translate(44.000000, 546.000000)">
                    <g id="编组-2" transform="translate(12.000000, 13.000000)">
                        <rect id="矩形" x="0" y="0" width="18" height="18"></rect>
                        <g id="mm-logo" transform="translate(1.800000, 1.800000)" fill-rule="nonzero" stroke-linecap="round" stroke-linejoin="round" stroke-width="0.5625">
                            <polygon id="路径" stroke="#E17726" fill="#E17726" points="13.53528 0 7.97260235 4.11598588 9.00703059 1.69030165"></polygon>
                            <polygon id="路径" stroke="#E27625" fill="#E27625" points="0.704261647 0 6.21741176 4.1544 5.23253647 1.69029741"></polygon>
                            <polygon id="路径" stroke="#E27625" fill="#E27625" points="11.5323671 9.54355765 10.0523012 11.8046118 13.2215294 12.6772094 14.1294071 9.59298353"></polygon>
                            <polygon id="路径" stroke="#E27625" fill="#E27625" points="0.115500706 9.59298353 1.01784706 12.6772094 4.18159059 11.8046118 2.70700518 9.54355765"></polygon>
                            <polygon id="路径" stroke="#E27625" fill="#E27625" points="4.01099294 5.72395765 3.13066588 7.05206118 6.26688 7.19474824 6.16235294 3.81964235"></polygon>
                            <polygon id="路径" stroke="#E27625" fill="#E27625" points="10.2283624 5.724 8.04405176 3.78126212 7.97251765 7.19479059 11.1087106 7.05210353"></polygon>
                            <polygon id="路径" stroke="#E27625" fill="#E27625" points="4.18163294 11.8046118 6.07984941 10.8881365 4.44574588 9.61492235"></polygon>
                            <polygon id="路径" stroke="#E27625" fill="#E27625" points="8.15967529 10.8881365 10.0523859 11.8046118 9.79377882 9.61492235"></polygon>
                            <polygon id="路径" stroke="#D5BFB2" fill="#D5BFB2" points="10.0523859 11.8046965 8.15967529 10.8882212 8.31371294 12.1175153 8.29719529 12.63888"></polygon>
                            <polygon id="路径" stroke="#D5BFB2" fill="#D5BFB2" points="4.18163294 11.8046965 5.94232941 12.63888 5.93131765 12.1175153 6.07984941 10.8882212"></polygon>
                            <polygon id="路径" stroke="#233447" fill="#233447" points="5.97528 8.80272 4.40165647 8.34175059 5.51308235 7.83135529"></polygon>
                            <polygon id="路径" stroke="#233447" fill="#233447" points="8.26420235 8.80272 8.7264 7.83135529 9.84333176 8.34175059"></polygon>
                            <polygon id="路径" stroke="#CC6228" fill="#CC6228" points="4.18159059 11.8046118 4.45671529 9.54355765 2.70703059 9.59298353"></polygon>
                            <polygon id="路径" stroke="#CC6228" fill="#CC6228" points="9.78272471 9.54355765 10.0523435 11.8046118 11.5324094 9.59298353"></polygon>
                            <polygon id="路径" stroke="#CC6228" fill="#CC6228" points="11.1087106 7.05201882 7.97251765 7.19470588 8.26411765 8.80272 8.72631529 7.83131294 9.84324706 8.34170824"></polygon>
                            <polygon id="路径" stroke="#CC6228" fill="#CC6228" points="4.40165647 8.34170824 5.51308235 7.83131294 5.97528 8.80272 6.26688 7.19470588 3.13066588 7.05201882"></polygon>
                            <polygon id="路径" stroke="#E27525" fill="#E27525" points="3.13076753 7.05201882 4.44578824 9.61492235 4.40174118 8.34170824"></polygon>
                            <polygon id="路径" stroke="#E27525" fill="#E27525" points="9.84333176 8.34170824 9.79382118 9.61492235 11.1088376 7.05201882"></polygon>
                            <polygon id="路径" stroke="#E27525" fill="#E27525" points="6.26704941 7.19470588 5.97540706 8.80272 6.34404706 10.7015294 6.42659294 8.19902118"></polygon>
                            <polygon id="路径" stroke="#E27525" fill="#E27525" points="7.97260235 7.19470588 7.81852235 8.19355765 7.89556235 10.7015294 8.26420235 8.80272"></polygon>
                            <polygon id="路径" stroke="#F5841F" fill="#F5841F" points="8.26420235 8.80276235 7.89556235 10.7015718 8.15967529 10.8881788 9.79382118 9.61496471 9.84333176 8.34175059"></polygon>
                            <polygon id="路径" stroke="#F5841F" fill="#F5841F" points="4.40165647 8.34175059 4.44570353 9.61496471 6.07980706 10.8881788 6.34392 10.7015718 5.97528 8.80276235"></polygon>
                            <polygon id="路径" stroke="#C0AC9D" fill="#C0AC9D" points="8.29723765 12.6388376 8.31371294 12.1174729 8.17068706 11.9967247 6.06888 11.9967247 5.93131765 12.1174729 5.94232941 12.6388376 4.18163294 11.8046541 4.79786824 12.3095435 6.04685647 13.1711718 8.18716235 13.1711718 9.44165647 12.3095435 10.0523859 11.8046541"></polygon>
                            <polygon id="路径" stroke="#161616" fill="#161616" points="8.15963294 10.8881365 7.89552 10.7015718 6.34392 10.7015718 6.07984941 10.8881365 5.93127529 12.1174729 6.06883765 11.9967247 8.17064471 11.9967247 8.31371294 12.1174729"></polygon>
                            <polygon id="路径" stroke="#763E1A" fill="#763E1A" points="13.7718212 4.38488471 14.2395247 2.11287388 13.5352376 0 8.15967529 3.97880471 10.2284471 5.72395765 13.15008 6.57461647 13.7938447 5.82276706 13.5132565 5.61968471 13.9588941 5.21360471 13.6177835 4.95016941 14.0634635 4.60990588"></polygon>
                            <polygon id="路径" stroke="#763E1A" fill="#763E1A" points="0 2.11287388 0.473184 4.38488471 0.170568 4.60990588 0.621741176 4.95016941 0.280609412 5.21360471 0.726280941 5.61968471 0.445671529 5.82276706 1.08942353 6.57461647 4.01107765 5.72395765 6.07984941 3.97880471 0.704274353 0"></polygon>
                            <polygon id="路径" stroke="#F5841F" fill="#F5841F" points="13.1501224 6.57457412 10.2284894 5.72395765 11.1088376 7.05206118 9.79382118 9.61492235 11.5324941 9.59298353 14.1294918 9.59298353"></polygon>
                            <polygon id="路径" stroke="#F5841F" fill="#F5841F" points="4.01099294 5.72395765 1.08937694 6.57457412 0.115500706 9.59298353 2.70700518 9.59298353 4.44566118 9.61492235 3.13067012 7.05206118"></polygon>
                            <polygon id="路径" stroke="#F5841F" fill="#F5841F" points="7.97256 7.19474824 8.15963294 3.97876235 9.00694588 1.69029318 5.23249412 1.69029318 6.07980706 3.97876235 6.26688 7.19474824 6.33841412 8.20452706 6.34392 10.7015718 7.89552 10.7015718 7.90102588 8.20452706"></polygon>
                        </g>
                    </g>
                </g>
            </g>
        </g>
    </g>
</svg>